<svg width="107" height="14" viewBox="0 0 107 14" fill="none" xmlns="http://www.w3.org/2000/svg">
<path d="M2.87295 11.6175V2.4247H5.0649C7.89529 2.4247 9.00191 3.68976 9.00191 6.85241C9.00191 10.0151 7.89529 11.6175 5.32028 11.6175H2.87295ZM5.91615 14C9.5765 14 12.0238 11.1114 12.0238 6.85241C12.0238 2.59337 9.29984 0 5.46924 0H0V14H5.91615Z" fill="#313234"/>
<path d="M24.2233 14V11.512H16.3705V7.90663H23.2869V5.43976H16.3705V2.44578H23.8828V0H13.4976V14H24.2233Z" fill="#313234"/>
<path d="M32.9354 14L37.7237 0H34.6592L31.5947 9.8253L28.509 0H25.3594L30.1476 14H32.9354Z" fill="#313234"/>
<path d="M39.1625 14V11.1536H36.2044V14H39.1625Z" fill="#313234"/>
<path d="M55.9159 14V11.512H48.0632V7.90663H54.9795V5.43976H48.0632V2.44578H55.5754V0H45.1902V14H55.9159Z" fill="#313234"/>
<path d="M64.3072 14L69.0954 0H66.0309L62.9665 9.8253L59.8807 0H56.7311L61.5193 14H64.3072Z" fill="#313234"/>
<path d="M81.1374 14V11.512H73.2847V7.90663H80.201V5.43976H73.2847V2.44578H80.7969V0H70.4117V14H81.1374Z" fill="#313234"/>
<path d="M94.2122 14V0H91.4456V9.00301L85.8274 0H82.6991V14H85.4444V4.59639L91.4882 14H94.2122Z" fill="#313234"/>
<path d="M102.722 14V2.44578H107V0H95.5082V2.44578H99.7644V14H102.722Z" fill="#313234"/>
</svg>
