<svg width="40" height="40" viewBox="0 0 40 40" fill="none" xmlns="http://www.w3.org/2000/svg">
<path d="M25.0207 23.0782L27.876 25.9328L26.9327 26.8762L24.078 24.0208C23.0159 24.8723 21.6947 25.3354 20.3334 25.3335C17.0214 25.3335 14.3334 22.6455 14.3334 19.3335C14.3334 16.0215 17.0214 13.3335 20.3334 13.3335C23.6454 13.3335 26.3334 16.0215 26.3334 19.3335C26.3353 20.6948 25.8722 22.016 25.0207 23.0782ZM23.6834 22.5835C24.5294 21.7134 25.002 20.5471 25 19.3335C25 16.7548 22.9114 14.6668 20.3334 14.6668C17.7547 14.6668 15.6667 16.7548 15.6667 19.3335C15.6667 21.9115 17.7547 24.0002 20.3334 24.0002C21.547 24.0021 22.7133 23.5296 23.5834 22.6835L23.6834 22.5835Z" fill="#313234"/>
</svg>
